<svg id="SvgjsSvg1001" width="288" height="288" 
xmlns="http://www.w3.org/2000/svg" version="1.1" 
xmlnsXlink="http://www.w3.org/1999/xlink" xmlnsSvgjs="http://svgjs.com/svgjs">
<defs id="SvgjsDefs1002"></defs><g id="SvgjsG1008">
<svg xmlns="http://www.w3.org/2000/svg" viewBox="0 0 32 32" width="288" height="288">
<path fill="#01b4e4" d="M16,4A12,12,0,1,0,28,16,12.01312,12.01312,0,0,0,16,4ZM10,18a2,2,0,1,1,2-2A2.00006,2.00006,0,0,1,10,18Zm6,0a2,2,0,1,1,2-2A2.00006,2.00006,0,0,1,16,18Zm6,0a2,2,0,1,1,2-2A2.00006,2.00006,0,0,1,22,18Z" class="colorFFF svgShape">
</path></svg></g></svg>